<svg id="Layer_1" data-name="Layer 1" xmlns="http://www.w3.org/2000/svg" viewBox="0 0 1600 1200"><defs><style>.cls-1{fill:#9accff;}.cls-2{fill:#1a65ff;}.cls-3{fill:#3531ff;}.cls-4{fill:#0098fd;}</style></defs><polygon class="cls-1" points="873.27 598.08 800 524.81 726.73 598.08 669.96 654.88 726.26 711.2 800 784.92 873.75 711.2 930.05 654.88 873.27 598.08"/><rect class="cls-2" x="1028.57" y="474.22" width="123.21" height="123.21" transform="translate(-59.58 927.81) rotate(-45)"/><rect class="cls-3" x="1176.73" y="428.2" width="63.37" height="63.37" transform="translate(2388.08 -69.41) rotate(135)"/><rect class="cls-4" x="579.04" y="562.72" width="183.05" height="183.05" transform="translate(682.12 1591.03) rotate(-135)"/><rect class="cls-2" x="447.19" y="473.19" width="123.21" height="123.21" transform="translate(490.42 1272.72) rotate(-135)"/><rect class="cls-3" x="359.9" y="428.21" width="63.37" height="63.37" transform="translate(439.88 -142.19) rotate(45)"/><rect class="cls-4" x="837.91" y="562.72" width="183.05" height="183.05" transform="translate(-190.4 848.84) rotate(-45)"/></svg>